<svg fill="none" height="64" viewBox="0 0 64 64" width="64" xmlns="http://www.w3.org/2000/svg"><g stroke="#fff" stroke-linecap="round" stroke-linejoin="round" stroke-width="2"><path d="m42.123 48.6514c4.5564 0 8.25-3.6937 8.25-8.25 0-4.5564-3.6936-8.25-8.25-8.25-4.5563 0-8.25 3.6936-8.25 8.25 0 4.5563 3.6937 8.25 8.25 8.25z"/><path d="m45.7995 38.0034-3.9944 5.3254c-.0888.118-.2019.2156-.3317.2863-.1298.0706-.2731.1126-.4205.1232-.1474.0105-.2953-.0106-.4338-.062-.1385-.0515-.2643-.132-.3691-.2361l-2.0625-2.0625"/><path d="m29.7472 44.5264h-8.25c-.2727.0068-.5439-.0419-.7972-.1432-.2533-.1012-.4834-.2529-.6763-.4458s-.3446-.423-.4458-.6763-.1499-.5245-.1432-.7972v-20.4779c-.0185-.5663.1881-1.1168.5747-1.531s.9216-.6582 1.4878-.6786h20.625c.5662.0204 1.1013.2644 1.4879.6786s.5932.9647.5746 1.531v6.0404"/><path d="m25.623 17.7139v6.1875"/><path d="m31.8105 17.7139v6.1875"/><path d="m37.998 17.7139v6.1875"/></g></svg>