<svg fill="none" height="64" viewBox="0 0 64 64" width="64" xmlns="http://www.w3.org/2000/svg"><g stroke="#fff" stroke-linecap="round" stroke-linejoin="round" stroke-width="1.5"><path d="m46.4126 28.5008v-1.3143c0-1.0443-.4148-2.0458-1.1533-2.7842-.7384-.7384-1.7399-1.1533-2.7842-1.1533h-23.6233c-.5172-.0002-1.0294.1015-1.5073.2992-.4779.1978-.9122.4878-1.278.8535-.3658.3656-.656.7998-.854 1.2776s-.2999.99-.2999 1.5072v10.5c.0005 1.0442.4155 2.0454 1.1538 2.7837.7383.7384 1.7395 1.1534 2.7837 1.1538h23.625c1.0443 0 2.0458-.4148 2.7842-1.1532.7385-.7385 1.1533-1.74 1.1533-2.7843v-1.3125h2.625c.6962 0 1.3639-.2765 1.8562-.7688.4922-.4923.7688-1.16.7688-1.8562v-2.625c0-.6962-.2766-1.3638-.7688-1.8561-.4923-.4923-1.16-.7689-1.8562-.7689z"/><path d="m41.528 26.771h-22.0173c-.5522 0-1 .4477-1 1v9.335c0 .5522.4478 1 1 1h22.0173c.5523 0 1-.4478 1-1v-9.335c0-.5523-.4477-1-1-1z" fill="#fff"/></g></svg>