<svg fill="none" height="64" viewBox="0 0 64 64" width="64" xmlns="http://www.w3.org/2000/svg"><g stroke="#fff" stroke-linecap="round" stroke-linejoin="round" stroke-width="1.5"><path d="m44.9102 28.0008v-1.3143c0-1.0443-.4149-2.0458-1.1533-2.7842s-1.74-1.1533-2.7842-1.1533h-23.6233c-.5172-.0002-1.0294.1015-1.5073.2992-.478.1978-.9122.4878-1.2781.8535-.3658.3656-.656.7998-.854 1.2776-.1979.4778-.2998.99-.2998 1.5072v10.5c.0004 1.0442.4154 2.0454 1.1537 2.7837.7384.7384 1.7396 1.1534 2.7838 1.1538h23.625c1.0442 0 2.0458-.4148 2.7842-1.1532.7384-.7385 1.1533-1.74 1.1533-2.7843v-1.3125h2.625c.6961 0 1.3638-.2765 1.8561-.7688s.7689-1.16.7689-1.8562v-2.625c0-.6962-.2766-1.3638-.7689-1.8561s-1.16-.7689-1.8561-.7689z"/><path d="m33.4189 26.271h-15.4106c-.5523 0-1 .4477-1 1v9.335c0 .5522.4477 1 1 1h15.4106c.5523 0 1-.4478 1-1v-9.335c0-.5523-.4477-1-1-1z" fill="#fff"/></g></svg>