<svg fill="none" height="64" viewBox="0 0 64 64" width="64" xmlns="http://www.w3.org/2000/svg"><g stroke="#fff" stroke-linecap="round" stroke-linejoin="round" stroke-width="2"><path d="m31.1133 46.979c5.1259 0 9.2812-4.1554 9.2812-9.2812 0-5.1259-4.1553-9.2813-9.2812-9.2813s-9.2813 4.1554-9.2813 9.2813c0 5.1258 4.1554 9.2812 9.2813 9.2812z"/><path d="m29.8496 32.5415v5.1563l4.125 3.0937"/><path d="m40.3394 36.6858c1.526-.4947 2.8543-1.4634 3.7916-2.7652s1.4346-2.8688 1.4197-4.4728c-.0473-2.7183-1.158-5.3099-3.0938-7.2188-.0585.478-.213.9392-.4541 1.356-.2412.4168-.5641.7806-.9494 1.0695-.3852.289-.8248.4971-1.2925.6119s-.9537.134-1.429.0564c-1.3153-1.1059-2.23-2.614-2.6027-4.2914-.3728-1.6775-.1829-3.4311.5402-4.9899-6.446 0-10.571 3.8033-11.3437 9.2813-.9509.0993-1.9043-.1643-2.6692-.738s-1.2849-1.4151-1.4558-2.3558c-5.1755 4.4-3.9229 12.4341 1.0849 14.4609"/></g></svg>