<svg fill="none" height="64" viewBox="0 0 63 64" width="63" xmlns="http://www.w3.org/2000/svg"><g stroke="#fff" stroke-linecap="round" stroke-linejoin="round" stroke-width="2"><path d="m32.5312 46.6572c-4.125 0-8.25-2.2907-8.25-6.875 0-4.125 3.0938-6.875 4.9501-6.875-.4125 2.2922-.6188 4.125 1.8562 4.125 3.7125 0 2.7046-5.995-1.2375-11 5.126 0 10.9312 5.7297 10.9312 11.4593 0 4.5829-2.2687 9.1657-8.25 9.1657z"/><path d="m22.2188 27.0635c0-1.3675.5432-2.6791 1.5102-3.646.967-.967 2.2785-1.5103 3.646-1.5103"/><path d="m40.7812 27.0635c0-1.3675-.5432-2.6791-1.5102-3.646-.967-.967-2.2785-1.5103-3.646-1.5103"/></g></svg>