<svg fill="none" height="64" viewBox="0 0 64 64" width="64" xmlns="http://www.w3.org/2000/svg"><g stroke="#fff" stroke-linecap="round" stroke-linejoin="round" stroke-width="2"><path d="m30.2632 31.4517c.9448 1.1267 1.5212 2.5162 1.6515 3.9809.1304 1.4647-.1917 2.9341-.9228 4.2099-.6471.05-1.2891-.1476-1.7961-.553s-.841-.9881-.9346-1.6305c-.9691.5296-1.7667 1.3249-2.2989 2.2925-.5323.9676-.7771 2.0671-.7055 3.169 0 .8607.1696 1.713.499 2.5082.3294.7951.8122 1.5176 1.4209 2.1262.6087.6085 1.3313 1.0912 2.1265 1.4204.7952.3293 1.6475.4987 2.5082.4985 1.7308-.0235 3.384-.7215 4.6079-1.9454s1.9219-2.8771 1.9454-4.6079c.242-6.4638-3.5118-9.9673-8.1015-11.4688z"/><path d="m44.0365 26.7847h-.5046l-3.619 4.5237c-1.3716-4.1796-1.1959-8.7128.495-12.7737-3.1509.1597-6.2081 1.1258-8.8786 2.8058s-4.8649 4.0176-6.3729 6.7889l-3.2807-3.1996c-1.9179 1.9574-3.2391 4.4201-3.8093 7.1005-.5701 2.6804-.3656 5.4677.5895 8.0362.9552 2.5685 2.6217 4.8121 4.8047 6.4687 2.183 1.6565 4.7924 2.6575 7.5232 2.8861s5.4703-.3248 7.8983-1.5954c2.428-1.2705 4.4442-3.2059 5.8131-5.5799 1.3689-2.3739 2.0338-5.0885 1.9172-7.8264-.1166-2.7378-1.01-5.386-2.5759-7.6349z"/></g></svg>