<svg fill="none" height="64" viewBox="0 0 64 64" width="64" xmlns="http://www.w3.org/2000/svg"><g stroke="#fff" stroke-linecap="round" stroke-linejoin="round" stroke-width="2"><path d="m41.8027 47.7529v-8.6143c1.8999-1.7602 3.2249-4.0523 3.802-6.5771s.3794-5.165-.5672-7.5757-2.5982-4.48-4.739-5.9376c-2.1409-1.4575-4.6715-2.2357-7.2614-2.2328-9.8162 0-11.9282 8.0823-15.4344 17.16-.06.1563-.081.3248-.0614.491.0196.1663.0794.3252.1741.4632s.2215.2509.3696.329c.148.0781.3128.1191.4802.1193h2.6125v4.125c0 1.0941.4346 2.1433 1.2082 2.9169.7736.7735 1.8228 1.2081 2.9168 1.2081h2.0625v4.125"/><path d="m28.1458 26.3717c-.1327-.0696-.2488-.1672-.3401-.286-.0913-.1189-.1556-.2562-.1886-.4025-.033-.1462-.0337-.2978-.0023-.4444.0315-.1466.0945-.2845.1845-.4043 1.0313-1.3606 2.5113-2.3118 4.1774-2.6846 1.666-.3729 3.4103-.1433 4.9231.648s2.6963 2.093 3.3403 3.6742c.6441 1.5811.707 3.3393.1776 4.9624-.0465.1426-.1235.2733-.2256.383-.1022.1098-.2271.196-.366.2525-.1389.0566-.2884.0821-.4382.075-.1498-.0072-.2962-.047-.4291-.1165z"/></g></svg>