<svg fill="none" height="64" viewBox="0 0 64 64" width="64" xmlns="http://www.w3.org/2000/svg"><g stroke="#fff" stroke-linecap="round" stroke-linejoin="round" stroke-width="2"><path d="m41.1367 47.9229v-8.6144c1.8999-1.7601 3.2249-4.0523 3.802-6.5771s.3794-5.165-.5672-7.5757-2.5982-4.48-4.739-5.9376c-2.1409-1.4575-4.6715-2.2357-7.2614-2.2327-9.8162 0-11.9282 8.0822-15.4344 17.16-.06.1562-.081.3247-.0614.491.0196.1662.0794.3251.1741.4631s.2215.251.3696.3291c.148.0781.3128.119.4802.1193h2.6125v4.125c0 1.094.4346 2.1432 1.2082 2.9168s1.8228 1.2082 2.9168 1.2082h2.0625v4.125"/><path d="m33.5521 32.4541c-2.092 0-4.1839-1.1617-4.1839-3.4866 0-1.7308.6519-2.7076 1.2101-3.4752.2094 1.0816.9864 2.0805 2.2416 2.0805 1.8828 0 1.7463-3.2054-.253-5.7437 2.5997 0 5.1691 3.0709 5.1691 5.9767 0 2.3241-1.1506 4.6483-4.1839 4.6483z"/></g></svg>