<svg fill="none" height="64" viewBox="0 0 64 64" width="64" xmlns="http://www.w3.org/2000/svg"><g stroke="#fff" stroke-linecap="round" stroke-linejoin="round" stroke-width="2"><path d="m26.5006 49.188v-4.125h-2.0625c-1.094 0-2.1432-.4346-2.9168-1.2082s-1.2082-1.8228-1.2082-2.9168v-4.125h-2.6125c-.1675.0001-.3325-.0407-.4807-.1187s-.2752-.1909-.37-.329-.1545-.2972-.174-.4636c-.0194-.1664.0019-.335.0622-.4912.924-2.3953 1.7504-4.7163 2.6482-6.8475"/><path d="m44.805 28.563c.4406 2.1655.3164 4.408-.3608 6.5115-.6772 2.1036-1.8845 3.9974-3.5057 5.4991v8.6144"/><path d="m39.3502 18.0137h-.3095l-2.2202 2.7752c-.8414-2.564-.7336-5.345.3037-7.8363-1.933.098-3.8085.6907-5.4468 1.7213-1.6382 1.0307-2.9844 2.4647-3.9095 4.1648l-2.0126-1.9629c-1.1766 1.2008-1.9871 2.7116-2.3369 4.356-.3497 1.6443-.2243 3.3542.3617 4.9299s1.6083 2.9521 2.9475 3.9683 2.9399 1.6304 4.6152 1.7706 3.3558-.1993 4.8453-.9787c1.4895-.7795 2.7264-1.9668 3.5662-3.4231.8398-1.4564 1.2477-3.1217 1.1761-4.8013-.0715-1.6796-.6196-3.3041-1.5802-4.6838z"/></g></svg>