<svg fill="none" height="64" viewBox="0 0 64 64" width="64" xmlns="http://www.w3.org/2000/svg"><g stroke="#fff" stroke-linecap="round" stroke-linejoin="round" stroke-width="2"><path d="m28.4531 40.8921-5.1562 5.1562"/><path d="m35.6719 40.8921-5.1563 5.1562"/><path d="m27.4865 29.5486c-.0431-.3421-.0647-.6865-.0646-1.0312.0026-.5181.0547-1.0346.1553-1.5428"/><path d="m35.6712 36.7671c1.5661.0019 3.1003-.4421 4.4234-1.2799 1.3232-.8378 2.3805-2.035 3.0484-3.4515.668-1.4165.9189-2.9938.7236-4.5477-.1954-1.5538-.829-3.02-1.8267-4.2271-.9978-1.2071-2.3185-2.1052-3.8079-2.5895-1.4893-.4843-3.0857-.5346-4.6026-.1451-1.5169.3894-2.8916 1.2026-3.9634 2.3444-1.0719 1.1419-1.7966 2.5652-2.0895 4.1036-.6975-.3344-1.4614-.5073-2.235-.506-.7735.0014-1.5368.177-2.2332.5138-.6963.3369-1.3079.8263-1.7891 1.4319-.4813.6056-.82 1.3118-.9908 2.0663-.1709.7544-.1696 1.5377.0038 2.2915.1734.7539.5143 1.459.9976 2.063s1.0965 1.0914 1.794 1.4259c.6974.3345 1.4613.5076 2.2349.5064z"/></g></svg>