<svg fill="none" height="64" viewBox="0 0 63 64" width="63" xmlns="http://www.w3.org/2000/svg"><g stroke="#fff" stroke-linecap="round" stroke-linejoin="round" stroke-width="2"><path d="m36.3486 45.5259-3.0937 3.0937"/><path d="m23.9736 45.5259-3.0937 3.0937"/><path d="m31.1924 38.3071-4.125 4.125h6.1875l-5.1563 5.1563"/><path d="m27.132 31.0886c-.0431-.342-.0647-.6864-.0646-1.0312.0026-.518.0547-1.0346.1554-1.5428"/><path d="m35.3167 38.3071c1.5661.0019 3.1003-.442 4.4235-1.2799 1.3231-.8378 2.3804-2.0349 3.0483-3.4514.668-1.4165.9189-2.9939.7236-4.5478-.1954-1.5538-.829-3.02-1.8267-4.2271-.9978-1.207-2.3185-2.1052-3.8079-2.5895-1.4893-.4842-3.0857-.5346-4.6026-.1451s-2.8916 1.2026-3.9634 2.3445c-1.0719 1.1418-1.7966 2.5651-2.0894 4.1036-.6976-.3344-1.4615-.5074-2.2351-.506-.7735.0013-1.5368.177-2.2332.5138-.6963.3368-1.3079.8262-1.7891 1.4318-.4813.6056-.82 1.3119-.9908 2.0663-.1709.7545-.1696 1.5377.0038 2.2916s.5144 1.459.9976 2.063c.4833.604 1.0965 1.0913 1.794 1.4259.6974.3345 1.4613.5075 2.2349.5063z"/></g></svg>