<svg fill="none" height="64" viewBox="0 0 64 64" width="64" xmlns="http://www.w3.org/2000/svg"><g stroke="#fff" stroke-linecap="round" stroke-linejoin="round" stroke-width="2"><path d="m31.0244 24.2573c7.9736 0 14.4375-1.3851 14.4375-3.0937 0-1.7087-6.4639-3.0938-14.4375-3.0938s-14.4375 1.3851-14.4375 3.0938c0 1.7086 6.4639 3.0937 14.4375 3.0937z"/><path d="m41.9807 28.3481c-1.6307 1.3613-8.1441 2.244-14.7248 1.925"/><path d="m40.9579 34.8901c-1.5757.8902-3.3253 1.4287-5.1288 1.5785"/><path d="m16.5873 21.1636s-2.8339 6.5505 10.3125 14.4375c10.3125 6.1875 7.2187 13.4062 7.2187 13.4062s8.25-3.0937 7.2188-10.3125c-2.0254-14.1831 4.125-10.3125 4.125-17.5312"/></g></svg>