<svg fill="none" height="64" viewBox="0 0 64 64" width="64" xmlns="http://www.w3.org/2000/svg"><g stroke="#fff" stroke-linecap="round" stroke-linejoin="round" stroke-width="2"><path d="m41.5761 47.0781v-8.6143c1.9-1.7602 3.225-4.0523 3.8021-6.5771.577-2.5248.3794-5.165-.5673-7.5757-.9466-2.4108-2.5981-4.48-4.739-5.9376-2.1408-1.4576-4.6715-2.2357-7.2614-2.2328-9.8161 0-11.9281 8.0823-15.4344 17.16-.0599.1563-.081.3248-.0614.491.0197.1662.0794.3252.1741.4632s.2216.2509.3696.329c.1481.0781.3129.1191.4802.1193h2.6125v4.125c0 1.0941.4346 2.1433 1.2082 2.9168.7736.7736 1.8228 1.2082 2.9168 1.2082h2.0625v4.125"/><path d="m27.9193 25.6969c-.1328-.0696-.2488-.1672-.3401-.2861-.0913-.1188-.1557-.2561-.1887-.4024-.0329-.1462-.0337-.2978-.0022-.4444.0314-.1466.0944-.2845.1845-.4043 1.0312-1.3606 2.5113-2.3118 4.1773-2.6846 1.6661-.3729 3.4103-.1433 4.9231.648 1.5129.7913 2.6963 2.093 3.3404 3.6741.644 1.5812.7069 3.3394.1776 4.9625-.0465.1425-.1235.2733-.2257.383-.1022.1098-.2271.196-.3659.2525-.1389.0566-.2885.0821-.4383.075-.1498-.0072-.2962-.047-.429-.1165z"/></g></svg>