<svg fill="none" height="64" viewBox="0 0 64 64" width="64" xmlns="http://www.w3.org/2000/svg"><g stroke="#fff" stroke-linecap="round" stroke-linejoin="round" stroke-width="2"><path d="m40.9101 47.6177v-8.6144c1.8999-1.7601 3.225-4.0522 3.802-6.5771.5771-2.5248.3795-5.1649-.5672-7.5757-.9466-2.4107-2.5982-4.48-4.739-5.9375-2.1409-1.4576-4.6715-2.2357-7.2614-2.2328-9.8161 0-11.9281 8.0822-15.4344 17.16-.0599.1563-.081.3248-.0614.491.0197.1662.0794.3252.1741.4632s.2216.2509.3696.329.3128.119.4802.1193h2.6125v4.125c0 1.094.4346 2.1432 1.2082 2.9168s1.8228 1.2082 2.9168 1.2082h2.0625v4.125"/><path d="m33.3255 32.1489c-2.0919 0-4.1839-1.1617-4.1839-3.4866 0-1.7307.652-2.7076 1.2102-3.4751.2093 1.0815.9864 2.0805 2.2415 2.0805 1.8828 0 1.7463-3.2055-.2529-5.7438 2.5996 0 5.1691 3.0709 5.1691 5.9767 0 2.3242-1.1506 4.6483-4.184 4.6483z"/></g></svg>