<svg fill="none" height="64" viewBox="0 0 64 64" width="64" xmlns="http://www.w3.org/2000/svg"><g stroke="#fff" stroke-linecap="round" stroke-linejoin="round" stroke-width="2"><path d="m26.7232 49.5781v-4.125h-2.0625c-1.094 0-2.1432-.4346-2.9168-1.2082-.7736-.7735-1.2082-1.8228-1.2082-2.9168v-4.125h-2.6125c-.1674.0001-.3324-.0406-.4807-.1187-.1482-.078-.2752-.1909-.3699-.329-.0948-.1381-.1545-.2972-.174-.4636-.0195-.1663.0018-.3349.0621-.4912.924-2.3952 1.7504-4.7162 2.6483-6.8475"/><path d="m45.0276 28.9531c.4407 2.1655.3164 4.408-.3607 6.5116-.6772 2.1035-1.8845 3.9973-3.5058 5.4991v8.6143"/><path d="m39.5729 18.4039h-.3096l-2.2201 2.7751c-.8414-2.564-.7337-5.345.3037-7.8362-1.9331.0979-3.8085.6906-5.4468 1.7213-1.6383 1.0306-2.9844 2.4646-3.9095 4.1647l-2.0127-1.9628c-1.1765 1.2008-1.9871 2.7116-2.3368 4.3559-.3498 1.6444-.2243 3.3543.3616 4.93.586 1.5756 1.6083 2.952 2.9475 3.9683 1.3392 1.0162 2.94 1.6303 4.6153 1.7705 1.6752.1402 3.3558-.1992 4.8453-.9787s2.7264-1.9667 3.5661-3.4231c.8398-1.4563 1.2478-3.1216 1.1762-4.8012-.0715-1.6796-.6196-3.3042-1.5802-4.6838z"/></g></svg>