<svg fill="none" height="64" viewBox="0 0 64 64" width="64" xmlns="http://www.w3.org/2000/svg"><g stroke="#fff" stroke-linecap="round" stroke-linejoin="round" stroke-width="2"><path d="m39.8584 25.1963 2.6084-2.6084"/><path d="m41.9512 22.0723 1.0312 1.0312"/><path d="m31.6387 22.0723v-6.1875"/><path d="m34.7324 15.8848h-6.1875"/><path d="m31.6387 22.0723v12.375h12.375c0-3.2821-1.3038-6.4297-3.6246-8.7505-2.3207-2.3207-5.4684-3.6245-8.7504-3.6245z"/><g fill="#fff"><path d="m31.6387 42.6973c-.102 0-.2017.0302-.2865.0869-.0848.0566-.1509.1372-.1899.2314s-.0492.1979-.0293.2979.069.1919.1411.264.164.1212.264.1411.2037.0097.2979-.0293c.0942-.0391.1747-.1051.2314-.1899s.0869-.1845.0869-.2865c0-.1368-.0543-.2679-.151-.3646s-.2279-.151-.3646-.151z"/><path d="m22.873 33.9316c-.1019 0-.2016.0303-.2864.0869-.0848.0567-.1509.1372-.1899.2314-.0391.0943-.0493.1979-.0294.298.0199.1.069.1919.1411.264.0722.0721.164.1212.2641.1411.1.0199.2036.0097.2979-.0294.0942-.039.1747-.1051.2314-.1899.0566-.0848.0869-.1845.0869-.2864 0-.1368-.0544-.2679-.1511-.3646-.0966-.0967-.2278-.1511-.3646-.1511z"/><path d="m25.44 40.1304c-.1019.0001-.2015.0304-.2863.087-.0847.0567-.1507.1372-.1897.2313-.039.0942-.0492.1978-.0293.2978.0198.0999.0689.1918.1409.2639.0472.0506.1041.0913.1674.1194.0632.0282.1315.0434.2007.0446.0693.0012.138-.0115.2022-.0374.0643-.026.1226-.0646.1715-.1135.049-.049.0876-.1073.1135-.1715.026-.0642.0387-.133.0375-.2022-.0012-.0693-.0164-.1375-.0446-.2008-.0282-.0632-.0688-.1202-.1194-.1674-.0478-.0479-.1046-.086-.1672-.1119-.0625-.026-.1295-.0393-.1972-.0393z"/><path d="m37.8374 40.1304c-.1019.0001-.2015.0304-.2862.087-.0847.0567-.1507.1372-.1897.2313-.039.0942-.0492.1978-.0294.2978.0199.0999.0689.1918.141.2639.0477.0479.1045.086.1671.112.0625.026.1295.0393.1972.0393s.1348-.0133.1973-.0393.1193-.0641.1671-.112c.072-.0721.1211-.164.1409-.2639.0199-.1.0097-.2036-.0293-.2978-.039-.0941-.105-.1746-.1897-.2313-.0847-.0566-.1843-.0869-.2863-.087z"/><path d="m25.4399 27.7329c-.1197-.0002-.2357.0411-.3283.1168-.0927.0758-.1561.1813-.1797.2987-.0235.1173-.0055.2391.0508.3447s.1474.1884.258.2343c.1105.0459.2335.052.348.0173.1146-.0347.2135-.108.28-.2075s.0964-.219.0847-.3381c-.0118-.119-.0645-.2304-.1491-.3149-.0478-.048-.1046-.086-.1671-.112-.0626-.026-.1296-.0393-.1973-.0393z"/><path d="m36.7426 28.6146c-.0843.0844-.1367.1955-.1484.3142-.0116.1187.0183.2378.0847.337.0663.0991.165.1722.2792.2067.1142.0346.2368.0285.347-.0173.1102-.0457.2011-.1282.2573-.2335.0561-.1052.074-.2267.0507-.3437-.0234-.117-.0866-.2223-.1789-.2979s-.2079-.1168-.3272-.1167c-.0678-.0002-.1348.0131-.1974.0391-.0625.0259-.1193.0641-.167.1121z"/></g></g></svg>