<svg fill="none" height="64" viewBox="0 0 63 64" width="63" xmlns="http://www.w3.org/2000/svg"><g stroke="#fff" stroke-linecap="round" stroke-linejoin="round" stroke-width="2"><path d="m38.501 25.3813 2.6084-2.6084"/><path d="m40.5938 22.2573 1.0312 1.0313"/><path d="m30.2812 22.2573v-6.1875"/><path d="m33.375 16.0698h-6.1875"/><path clip-rule="evenodd" d="m30.2812 22.2573v24.75c3.2821 0 6.4297-1.3038 8.7505-3.6245 2.3208-2.3208 3.6245-5.4684 3.6245-8.7505 0-3.282-1.3037-6.4297-3.6245-8.7504-2.3208-2.3208-5.4684-3.6246-8.7505-3.6246z" fill-rule="evenodd"/><g fill="#fff"><path d="m21.5156 34.1167c-.102 0-.2016.0302-.2864.0869s-.1509.1372-.1899.2314c-.0391.0942-.0493.1979-.0294.2979s.069.1919.1411.264.164.1212.264.1411c.1001.0199.2037.0097.2979-.0293.0943-.039.1748-.1051.2315-.1899.0566-.0848.0869-.1845.0869-.2865 0-.1367-.0544-.2679-.1511-.3646s-.2278-.151-.3646-.151z"/><path d="m24.0826 40.3154c-.102.0001-.2016.0304-.2863.0871-.0847.0566-.1507.1371-.1897.2313s-.0492.1978-.0293.2977c.0198.1.0689.1918.1409.2639.0472.0507.1041.0913.1674.1195.0632.0282.1315.0433.2007.0446.0693.0012.138-.0116.2022-.0375s.1226-.0645.1715-.1135c.049-.0489.0876-.1073.1135-.1715s.0387-.1329.0375-.2022c-.0013-.0692-.0164-.1375-.0446-.2007-.0282-.0633-.0688-.1202-.1195-.1674-.0478-.048-.1045-.086-.1671-.112-.0625-.0259-.1295-.0393-.1972-.0393z"/><path d="m23.7184 28.0692c-.084.0843-.1362.195-.1476.3134-.0115.1183.0184.237.0846.3359.0662.0988.1646.1716.2784.206.1139.0344.2361.0283.346-.0173.1098-.0456.2005-.1279.2565-.2328s.0739-.226.0507-.3426c-.0233-.1167-.0862-.2217-.1782-.2971-.0919-.0755-.2071-.1167-.3261-.1167-.0677 0-.1347.0133-.1972.0393-.0626.0259-.1194.064-.1671.1119z"/><path d="m38.0156 34.1167c-.102 0-.2016.0302-.2864.0869s-.1509.1372-.19.2314c-.039.0942-.0492.1979-.0293.2979s.069.1919.1411.264.164.1212.264.1411c.1001.0199.2037.0097.2979-.0293.0943-.039.1748-.1051.2315-.1899.0566-.0848.0868-.1845.0868-.2865 0-.1367-.0543-.2679-.151-.3646s-.2278-.151-.3646-.151z"/><path d="m35.7495 39.5864c-.0677-.0001-.1348.0131-.1973.0391-.0626.026-.1193.0641-.167.1122-.0843.0844-.1368.1954-.1484.3141-.0116.1188.0183.2379.0847.337.0663.0992.165.1722.2792.2068.1142.0345.2368.0284.347-.0173.1102-.0458.2011-.1283.2572-.2335.0562-.1053.0741-.2268.0507-.3438-.0233-.1169-.0865-.2222-.1788-.2978s-.208-.1169-.3273-.1168z"/><path d="m35.7495 28.6509c-.0677-.0002-.1348.0131-.1973.0391-.0626.0259-.1193.0641-.167.1121-.0843.0844-.1368.1955-.1484.3142s.0183.2378.0847.337c.0663.0991.165.1722.2792.2067.1142.0346.2368.0285.347-.0173.1102-.0457.2011-.1282.2572-.2335.0562-.1052.0741-.2267.0507-.3437-.0233-.117-.0865-.2223-.1788-.2979s-.208-.1168-.3273-.1167z"/></g></g></svg>