<svg fill="none" height="64" viewBox="0 0 64 64" width="64" xmlns="http://www.w3.org/2000/svg"><g stroke="#fff" stroke-linecap="round" stroke-linejoin="round" stroke-width="2"><g fill="#fff"><path d="m32.3301 42.6675c-.102 0-.2017.0302-.2865.0869-.0848.0566-.1509.1372-.1899.2314s-.0492.1979-.0293.2979.069.1919.1411.264.164.1212.264.1411.2037.0097.2979-.0293.1747-.1051.2314-.1899.0869-.1845.0869-.2865c0-.1367-.0543-.2679-.151-.3646s-.2279-.151-.3646-.151z"/><path d="m40.0645 34.9331c-.102 0-.2017.0302-.2865.0869s-.1509.1372-.1899.2314-.0493.1979-.0294.2979.069.1919.1412.264c.0721.0721.1639.1213.264.1411.1.0199.2037.0097.2979-.0293s.1747-.1051.2314-.1899c.0566-.0848.0869-.1845.0869-.2865 0-.1367-.0543-.2679-.151-.3646s-.2279-.151-.3646-.151z"/><path d="m37.7984 40.4028c-.0677-.0001-.1348.0131-.1974.0391-.0625.026-.1193.0641-.167.1122-.0843.0844-.1367.1954-.1483.3142-.0117.1187.0183.2378.0846.3369.0663.0992.165.1722.2792.2068.1142.0345.2368.0284.347-.0173.1102-.0458.2011-.1283.2573-.2335.0561-.1053.074-.2268.0507-.3437-.0234-.117-.0866-.2223-.1789-.2979s-.2079-.1169-.3272-.1168z"/><path d="m26.8613 40.4028c-.1021-.0001-.2019.0299-.2868.0865s-.1511.137-.1903.2313c-.0391.0942-.0495.1979-.0297.298.0199.1001.0689.192.141.2642.0967.0969.2278.1513.3646.1514.1368.0002.268-.054.3649-.1507.0968-.0966.1512-.2278.1514-.3646.0001-.1368-.0541-.268-.1508-.3648-.0477-.048-.1045-.0861-.167-.1121-.0626-.0259-.1296-.0393-.1973-.0392z"/><path d="m37.7984 29.4673c-.0677-.0002-.1348.0131-.1974.0391-.0625.0259-.1193.0641-.167.1121-.0843.0844-.1367.1955-.1483.3142-.0117.1187.0183.2378.0846.337.0663.0991.165.1722.2792.2067.1142.0346.2368.0285.347-.0173.1102-.0457.2011-.1282.2573-.2335.0561-.1052.074-.2267.0507-.3437-.0234-.117-.0866-.2222-.1789-.2978-.0923-.0757-.2079-.1169-.3272-.1168z"/></g><path d="m40.5801 26.1675 2.5781-2.5781"/><path d="m42.6426 23.0737 1.0312 1.0313"/><path d="m32.3301 23.0737v-6.1875"/><path d="m35.4238 16.8862h-6.1875"/><path clip-rule="evenodd" d="m32.3301 23.0737v12.375h-12.375c0 2.4476.7258 4.8402 2.0855 6.8752 1.3598 2.0351 3.2925 3.6212 5.5538 4.5578 2.2612.9367 4.7494 1.1817 7.1499.7042 2.4005-.4774 4.6055-1.656 6.3362-3.3867s2.9093-3.9357 3.3868-6.3362.2324-4.8887-.7042-7.15c-.9366-2.2612-2.5228-4.1939-4.5578-5.5537-2.0351-1.3598-4.4277-2.0856-6.8752-2.0856z" fill-rule="evenodd"/><path d="m26.4957 28.8856c-.0478-.0479-.1046-.086-.1671-.1119-.0626-.026-.1296-.0393-.1973-.0393-.1197-.0003-.2357.041-.3283.1168-.0927.0757-.1561.1813-.1796.2986-.0236.1174-.0056.2392.0507.3448s.1475.1884.258.2343c.1105.0458.2335.052.348.0173.1146-.0347.2135-.108.28-.2075s.0964-.219.0847-.3381c-.0118-.1191-.0645-.2304-.1491-.315z" fill="#fff"/></g></svg>