<svg fill="none" height="64" viewBox="0 0 64 64" width="64" xmlns="http://www.w3.org/2000/svg"><g stroke="#fff" stroke-linecap="round" stroke-linejoin="round" stroke-width="2"><path d="m36.4268 20.5332v-2.0625c0-.2735-.1087-.5358-.3021-.7292s-.4557-.302-.7292-.302h-6.1875c-.2735 0-.5358.1086-.7292.302s-.302.4557-.302.7292v2.0625h-3.0938c-.547 0-1.0716.2173-1.4584.6041s-.6041.9114-.6041 1.4584v23.7188c0 .547.2173 1.0716.6041 1.4584s.9114.6041 1.4584.6041h14.4375c.547 0 1.0716-.2173 1.4584-.6041s.6041-.9114.6041-1.4584v-23.7188c0-.547-.2173-1.0716-.6041-1.4584s-.9114-.6041-1.4584-.6041z"/><path d="m23.0205 34.9707h18.5625"/><path d="m29.208 41.1582h6.1875"/><path d="m29.208 27.752h6.1875"/><path d="m32.3018 24.6582v6.1875"/></g></svg>