<svg fill="none" height="64" viewBox="0 0 64 64" width="64" xmlns="http://www.w3.org/2000/svg"><g stroke="#fff" stroke-linecap="round" stroke-linejoin="round" stroke-width="2"><path d="m32.6196 32.3652c.6367 0 1.1529-.5161 1.1529-1.1528s-.5162-1.1528-1.1529-1.1528-1.1528.5161-1.1528 1.1528.5161 1.1528 1.1528 1.1528z" fill="#fff"/><path d="m40.7671 17.5172c-.1175-.0782-.2498-.1316-.3888-.1568-.1389-.0252-.2815-.0218-.4191.0102-.1375.0319-.2671.0917-.3807.1755-.1136.0839-.2088.1901-.2799.3121l-3.85 6.666c-.1349.2339-.1728.5113-.1054.7728.0673.2615.2345.4861.4657.6256.7852.4711 1.4558 1.1109 1.9632 1.8731.5075.7622.8392 1.6276.971 2.5338.0354.2452.1581.4695.3455.6317.1874.1621.427.2513.6748.251h7.26c.1413.0004.2811-.0284.4108-.0845s.2464-.1383.3429-.2415.1707-.2252.218-.3584.0666-.2746.0568-.4156c-.1688-2.517-.9134-4.9617-2.1764-7.1454s-3.0108-4.0482-5.1084-5.4496z"/><path d="m29.4233 25.9228c.2314-.1393.3989-.3639.4663-.6254.0673-.2616.0293-.5392-.1061-.7729l-3.85-6.6661c-.0706-.1213-.1653-.2269-.2782-.3103-.1129-.0835-.2417-.143-.3784-.1749s-.2785-.0356-.4167-.0108-.2698.0776-.3869.155c-2.0979 1.4014-3.846 3.2658-5.1095 5.4495s-2.0086 4.6284-2.178 7.1455c-.0092.1409.0105.2821.058.415s.1218.2546.2181.3577c.0964.1031.2129.1853.3423.2416s.269.0855.4101.0858h7.26c.2478.0002.4874-.089.6748-.2511.1874-.1622.31-.3864.3454-.6317.132-.9054.4632-1.7703.9696-2.5323s1.1756-1.4023 1.9592-1.8746z"/><path d="m35.6999 36.5488c-.9311.5571-1.9957.8512-3.0807.8512s-2.1496-.2941-3.0807-.8512l-4.6296 8.0204c-.0705.1221-.1153.2574-.1315.3975-.0163.14-.0036.282.0371.417s.1086.2602.1996.368c.0909.1077.203.1957.3293.2585 2.262 1.1197 4.7519 1.7022 7.2758 1.7022s5.0138-.5825 7.2758-1.7022c.1267-.0623.2392-.1501.3305-.2577.0913-.1077.1596-.233.2004-.3681.0409-.1352.0536-.2773.0372-.4175-.0163-.1402-.0613-.2756-.1322-.3977z"/></g></svg>