<svg fill="none" height="64" viewBox="0 0 64 64" width="64" xmlns="http://www.w3.org/2000/svg"><g stroke="#fff" stroke-linecap="round" stroke-linejoin="round" stroke-width="2"><path d="m32.1327 41.9719c4.6749 0 8.4647-3.7898 8.4647-8.4647s-3.7898-8.4647-8.4647-8.4647c-4.675 0-8.4647 3.7898-8.4647 8.4647s3.7897 8.4647 8.4647 8.4647z"/><path d="m38.1193 17.3657c1.1848 1.1834 1.9921 2.6917 2.3195 4.3339.3275 1.6423.1605 3.3448-.4799 4.8922-.6403 1.5473-1.7253 2.8699-3.1175 3.8005-1.3923.9306-3.0292 1.4273-4.7038 1.4273-1.6747 0-3.3116-.4967-4.7039-1.4273-1.3922-.9306-2.4772-2.2532-3.1175-3.8005-.6404-1.5474-.8074-3.2499-.4799-4.8922.3274-1.6422 1.1347-3.1505 2.3195-4.3339"/><path d="m15.1602 36.3968c.433-1.6174 1.336-3.0699 2.5947-4.174s2.8165-1.8101 4.4765-2.0287c1.6599-.2187 3.3475.0599 4.8491.8004s2.75 1.9097 3.5871 3.3597 1.2253 3.1157 1.1157 4.7864-.7123 3.2713-1.7317 4.5995-2.4098 2.3242-3.9953 2.8621c-1.5856.538-3.295.5936-4.9122.1599"/><path d="m43.1202 46.7621c-1.6171.4337-3.3266.3781-4.9121-.1599-1.5855-.5379-2.9759-1.5339-3.9953-2.8621-1.0195-1.3282-1.6221-2.9288-1.7317-4.5995-.1097-1.6707.2786-3.3364 1.1157-4.7864s2.0854-2.6192 3.5871-3.3597c1.5016-.7405 3.1891-1.0191 4.8491-.8004 1.66.2186 3.2178.9246 4.4765 2.0287s2.1616 2.5566 2.5947 4.174"/></g></svg>