<svg fill="none" height="64" viewBox="0 0 64 64" width="64" xmlns="http://www.w3.org/2000/svg"><g stroke="#fff" stroke-linecap="round" stroke-linejoin="round" stroke-width="2"><path d="m34.1714 29.239.5872-1.4974 4.4-1.4795c.8338-.2808 1.5219-.8813 1.913-1.6694.391-.7882.4529-1.6994.1721-2.5332-.2808-.8339-.8813-1.522-1.6694-1.913-.7882-.3911-1.6994-.453-2.5332-.1722l-15.719 5.2841-2.101-2.0928-3.1254 1.0492c-.2082.0699-.3958.1905-.5459.3508-.1502.1603-.2581.3554-.3143.5677-.0562.2124-.0587.4353-.0075.6489.0513.2136.1548.4111.3012.5748l4.2254 4.73c.3461.387.7982.664 1.3002.7967.5019.1327 1.0318.1153 1.524-.0501l4.6283-1.5551-.9378 6.688"/><path d="m32.6396 21.4539-4.917-3.3853c-.1696-.1172-.3642-.1931-.5683-.2218-.2041-.0286-.4121-.0092-.6073.0568l-2.3664.7948c-.2147.0719-.4074.1976-.5598.3651s-.2594.3712-.3108.5917-.0455.4505.0171.6681.1799.4156.3406.5751l2.684 2.6688"/><path d="m37.8403 48.771c4.548 0 8.2349-3.6869 8.2349-8.2349s-3.6869-8.2348-8.2349-8.2348-8.2348 3.6868-8.2348 8.2348 3.6868 8.2349 8.2348 8.2349z"/><path d="m41.4795 40.5361h-3.6397v-3.6396"/></g></svg>