<svg fill="none" height="64" viewBox="0 0 64 64" width="64" xmlns="http://www.w3.org/2000/svg"><g stroke="#fff" stroke-linecap="round" stroke-linejoin="round" stroke-width="2"><path d="m29.0246 32.4479-4.6196 2.1526c-.3974.1971-.844.2728-1.2841.2178s-.8543-.2383-1.1909-.5271l-4.1199-3.5063c-.142-.1218-.2517-.2768-.3194-.4512-.0676-.1745-.091-.363-.0681-.5487.0228-.1857.0913-.3628.1992-.5157.1079-.1528.252-.2766.4193-.3602l2.1657-.9539 2.0202 1.5241 13.0247-6.5824c.3328-.1655.6949-.2637 1.0657-.2892.3708-.0254.7429.0224 1.0952.1407.3523.1184.6779.305.9581.5492.2802.2441.5095.5411.6749.8739.1655.3328.2637.6949.2892 1.0657.0254.3708-.0224.743-.1407 1.0953-.1184.3523-.305.6778-.5491.958-.2442.2802-.5412.5095-.874.675l-.5411.296"/><path d="m31.8715 24.609-4.5993-2.3296c-.1573-.0784-.3306-.1192-.5064-.1192-.1757 0-.3491.0408-.5063.1192l-1.9068.9416c-.1722.0863-.3196.215-.4283.3741-.1087.159-.1751.3431-.193.5349-.0178.1918.0135.385.091.5614.0774.1763.1986.3301.3519.4467l2.6534 2.0161"/><path d="m43.5017 31.1469-13.0247 6.5824-2.0202-1.5241-2.1657.9539c-.1673.0836-.3114.2074-.4193.3602-.1079.1529-.1764.33-.1992.5157-.0229.1857.0005.3742.0681.5487.0677.1744.1774.3294.3194.4512l4.1199 3.5063c.3366.2888.7508.4721 1.1909.5271s.8867-.0207 1.2841-.2178l3.7331-1.8562v5.7616c-.0026.1919.0441.3812.1358.5499.0916.1686.2251.3108.3876.4129s.3486.1607.5403.1702c.1917.0094.3826-.0306.5543-.1162l1.9398-.9622c.1486-.0739.2792-.1795.3826-.3094.1033-.1299.1769-.2809.2155-.4424l1.9285-8.0829 3.5485-1.7603c.3328-.1655.6298-.3948.874-.675.2441-.2802.4307-.6057.5491-.958.1183-.3523.1661-.7245.1407-1.0953-.0255-.3708-.1237-.7329-.2892-1.0657-.1654-.3328-.3947-.6298-.6749-.8739-.2802-.2442-.6058-.4308-.9581-.5492-.3523-.1183-.7244-.1661-1.0952-.1407-.3708.0255-.7329.1237-1.0657.2892z"/><path d="m40.1215 32.859-4.5993-2.3296c-.1573-.0784-.3306-.1192-.5064-.1192-.1757 0-.3491.0408-.5063.1192l-1.9068.9416c-.1722.0863-.3196.215-.4283.3741-.1087.159-.1751.3431-.193.5349-.0178.1918.0135.385.091.5614.0774.1763.1986.3301.3519.4467l2.6534 2.0161"/></g></svg>