<svg fill="none" height="64" viewBox="0 0 63 64" width="63" xmlns="http://www.w3.org/2000/svg"><g stroke="#fff" stroke-linecap="round" stroke-linejoin="round" stroke-width="2"><path d="m43.8367 31.5825c.236 2.9009-.5581 5.7921-2.2426 8.1655-1.6845 2.3735-4.1517 4.0772-6.9679 4.8119s-5.8012.4532-8.4305-.7949c-2.6292-1.248-4.7345-3.3829-5.9457-6.0294"/><path d="m19.125 32.5754c-.0023-2.825.9621-5.5656 2.7327-7.7667 1.7707-2.2011 4.2412-3.7302 7.001-4.3331s5.6429-.2435 8.1702 1.0186 4.5467 3.3509 5.7227 5.9194"/><path d="m46.9688 34.6377-3.0938-3.0938-3.0938 3.0938"/><path d="m16.0312 29.4814 3.0938 3.0938 3.0938-3.0938"/><path d="m35.4195 27.3403-6.8062 9.075"/><path d="m27.582 29.1968 5.3625 1.4437 2.8875 4.7438"/><path d="m26.3438 36.0029 2.2687.4125 1.0312 2.0625"/></g></svg>