<svg fill="none" height="29" viewBox="0 0 29 29" width="29" xmlns="http://www.w3.org/2000/svg"><g stroke="#fff" stroke-linecap="round" stroke-linejoin="round" stroke-width="1.5"><path d="m5.99209 3.33298c-.22602-.07847-.46753-.10174-.70437-.06787-.23685.03387-.46215.12391-.65711.26259-.19496.13869-.35392.32199-.4636.53462-.10969.21263-.16692.44841-.16692.68766v8.64302c-.03927 1.6886.30539 3.364 1.008 4.9 1.637 3.359 4.817 5.8 8.96501 7.362.3401.1277.7149.1277 1.055 0 4.148-1.558 7.327-4 8.964-7.362.7026-1.536 1.0473-3.2114 1.008-4.9v-8.64302c0-.23925-.0572-.47503-.1669-.68766s-.2687-.39593-.4636-.53462c-.195-.13868-.4203-.22872-.6571-.26259-.2369-.03387-.4784-.0106-.7044.06787-5.501 1.96999-11.5151 1.96999-17.01601 0z"/><path d="m10 15.625c.0519 1.143.5546 2.2188 1.398 2.9919s1.9588 1.1806 3.102 1.1331c1.1432.0475 2.2586-.36 3.102-1.1331s1.3461-1.8489 1.398-2.9919"/><path d="m11.5 11.125c0-.4973-.1975-.9742-.5492-1.32583-.3516-.35163-.8285-.54917-1.3258-.54917-.49728 0-.97419.19754-1.32583.54917-.35163.35163-.54917.82853-.54917 1.32583"/><path d="m21.25 11.125c0-.4973-.1975-.9742-.5492-1.32583-.3516-.35163-.8285-.54917-1.3258-.54917s-.9742.19754-1.3258.54917c-.3517.35163-.5492.82853-.5492 1.32583"/></g></svg>