<svg fill="none" height="29" viewBox="0 0 29 29" width="29" xmlns="http://www.w3.org/2000/svg"><path d="m14.5001 23.8747-8.949-9.526c-.7878-.8107-1.30592-1.845-1.48348-2.9614-.17757-1.1164-.00592-2.26044.49148-3.27557.36369-.76149.9059-1.42387 1.58053-1.93082.67463-.50694 1.46172-.84346 2.29433-.98091.8326-.13746 1.68604-.0718 2.48784.1914s1.5282.71615 2.1173 1.32032l1.461 1.41301 1.462-1.417c.589-.60419 1.3153-1.05715 2.117-1.32036.8017-.2632 1.6552-.32887 2.4877-.19141.8325.13747 1.6195.47399 2.2941.98095.6745.50696 1.2166 1.16934 1.5802 1.93081.4974 1.01514.6691 2.15918.4915 3.27558s-.6957 2.1507-1.4835 2.9614z" stroke="#fff" stroke-linecap="round" stroke-linejoin="round" stroke-width="1.5"/></svg>