<svg fill="none" height="30" viewBox="0 0 29 30" width="29" xmlns="http://www.w3.org/2000/svg"><g stroke="#fff" stroke-linecap="round" stroke-linejoin="round" stroke-width="2"><path d="m20.7976 11.9068c0-.2386-.0948-.4674-.2635-.6361-.1687-.1688-.3976-.2635-.6362-.2635h-2.6989v-2.69898c0-.2386-.0948-.46743-.2635-.63615s-.3976-.2635-.6362-.2635h-3.5986c-.2386 0-.4674.09478-.6361.2635s-.2635.39755-.2635.63615v2.69898h-2.69894c-.2386 0-.46743.0947-.63614.2635-.16872.1687-.26351.3975-.26351.6361v3.5986c0 .2386.09479.4674.26351.6361.16871.1688.39754.2635.63614.2635h2.69894v2.699c0 .2386.0948.4674.2635.6361s.3975.2635.6361.2635h3.5986c.2386 0 .4675-.0948.6362-.2635s.2635-.3975.2635-.6361v-2.699h2.6989c.2386 0 .4675-.0947.6362-.2635.1687-.1687.2635-.3975.2635-.6361z"/><path d="m2.80461 5.81675v9.13325c.00003 2.8868.87484 5.7059 2.50913 8.0856 1.63428 2.3797 3.95132 4.2083 6.64566 5.2447l1.2487.4798c.8316.3199 1.7523.3199 2.5838 0l1.2487-.4798c2.6944-1.0364 5.0114-2.865 6.6457-5.2447s2.5091-5.1988 2.5091-8.0856v-9.13325c.0025-.34372-.0945-.68081-.2792-.97068-.1848-.28987-.4494-.52014-.762-.66308-3.3588-1.46608-6.9894-2.20634-10.6542-2.17235-3.6647-.03399-7.29532.70627-10.6542 2.17235-.31259.14294-.57719.37321-.76192.66308-.18474.28987-.28172.62696-.27927.97068z"/></g></svg>