<svg fill="none" height="29" viewBox="0 0 30 29" width="30" xmlns="http://www.w3.org/2000/svg"><g stroke="#fff" stroke-linecap="round" stroke-linejoin="round" stroke-width="2"><path d="m24.3839 11.5783v-.9756c0-.77525-.3079-1.51872-.8561-2.06689-.5482-.54816-1.2916-.85612-2.0669-.85612h-17.53661c-.38396-.00017-.7642.07531-1.11898.22212-.35478.14682-.67716.3621-.94873.63354-.27156.27144-.48698.59373-.63396.94845-.14697.35472-.22262.7349-.22262 1.1189v7.7946c.00034.7751.30841 1.5184.8565 2.0665.5481.5481 1.29137.8562 2.06649.8565h17.53791c.7753 0 1.5187-.3079 2.0669-.8561s.8561-1.2917.8561-2.0669v-.9743h1.9487c.5168 0 1.0125-.2053 1.3779-.5708.3654-.3654.5708-.8611.5708-1.3779v-1.9486c0-.5168-.2054-1.0125-.5708-1.3779-.3654-.3655-.8611-.5708-1.3779-.5708z"/><path d="m10.7445 11.5782h-5.84594v5.846h5.84594z"/></g></svg>