<svg fill="none" height="45" viewBox="0 0 45 45" width="45" xmlns="http://www.w3.org/2000/svg"><rect fill="#383333" height="45" rx="10" width="45"/><g stroke="#fff" stroke-linecap="round" stroke-linejoin="round" stroke-width="2"><path d="m23.7774 26.6571c-.1652.1724-.3635.3095-.583.4032-.2195.0936-.4557.1419-.6944.1419s-.4749-.0483-.6944-.1419c-.2195-.0937-.4178-.2308-.583-.4032l-4.7545-4.9538c-.5296-.5295-.8792-1.2122-.9992-1.9514-.1201-.7393-.0045-1.4975.3304-2.1674.253-.5057.6225-.9441 1.0782-1.279.4556-.335.9843-.5568 1.5425-.6474.5582-.0905 1.1299-.0471 1.668.1266.5381.1738 1.0273.4729 1.4271.8728l.9849.9789.9849-.9848c.3998-.3999.889-.699 1.4271-.8728.5381-.1737 1.1098-.2171 1.668-.1266.5582.0906 1.0869.3124 1.5425.6474.4557.3349.8252.7733 1.0781 1.279.3349.6699.4506 1.4281.3305 2.1674-.12.7392-.4696 1.4219-.9992 1.9514z"/><path d="m11 12.9738v8.9806c0 4.3913 1.9214 10.3795 10.2297 13.5794.8176.3146 1.7229.3146 2.5406 0 8.3047-3.194 10.2296-9.2259 10.2296-13.5794v-8.9806c.0024-.3379-.0929-.6694-.2746-.9544-.1816-.285-.4418-.5115-.7492-.652-3.3027-1.44161-6.8726-2.1695-10.4761-2.13607-3.6035-.03343-7.1735.69446-10.4762 2.13607-.3074.1405-.5676.367-.7492.652-.1817.285-.277.6165-.2746.9544z"/></g></svg>