<svg fill="none" height="45" viewBox="0 0 45 45" width="45" xmlns="http://www.w3.org/2000/svg"><rect fill="#383333" height="45" rx="10" width="45"/><g stroke="#fff" stroke-linecap="round" stroke-linejoin="round" stroke-width="2"><path d="m24.1624 16.6797-5.9422 5.9421c-.0581.0582-.0976.1322-.1136.2128s-.0078.1641.0237.2401c.0314.0759.0846.1408.1529.1865.0683.0456.1486.0701.2308.0701h2.3281v4.9888l5.9421-5.9422c.0581-.0581.0976-.1321.1136-.2127s.0078-.1642-.0236-.2401c-.0315-.0759-.0847-.1408-.153-.1865s-.1486-.0701-.2308-.0702h-2.328z"/><path d="m10.1373 24.1628c-.073-.5513-.1097-1.1068-.1097-1.6629 0-3.3077 1.314-6.48 3.6529-8.8189s5.5112-3.6529 8.8189-3.6529"/><path d="m34.8615 24.1628c.0735-.5512.1105-1.1067.1109-1.6629 0-1.6379-.3226-3.2598-.9495-4.773-.6268-1.5132-1.5456-2.8882-2.7038-4.0463s-2.5333-2.0768-4.0465-2.7035c-1.5133-.6267-3.1352-.9492-4.7731-.949"/><path d="m33.9359 27.4797c-.4049.9437-.9304 1.8309-1.5632 2.6396"/><path d="m29.9682 32.4841c-.8166.6213-1.7111 1.1326-2.6607 1.521"/><path d="m17.7169 34.0051c-.9499-.3878-1.8445-.8992-2.6606-1.521"/><path d="m12.6484 30.1193c-.6346-.8083-1.1615-1.6955-1.5676-2.6396"/><path d="m24.1624 34.8621c-1.1038.1463-2.2221.1463-3.3259 0"/></g></svg>