<svg fill="none" height="30" viewBox="0 0 30 30" width="30" xmlns="http://www.w3.org/2000/svg"><path d="m13.4774 29c-4.81523-4.1781-14.83671-14.3389-11.97119-20.07333.45176-.90355 1.11178-1.68681 1.92566-2.28522.81388-.5984 1.75832-.99483 2.75548-1.15659.99716-.16177 2.01848-.08425 2.9798.22617.96135.31042 1.83515.84486 2.54935 1.55925l1.7598 1.75865 1.7597-1.75865c.7142-.7137 1.5876-1.24754 2.5485-1.55756.9609-.31001 1.9816-.38733 2.9782-.22558.9966.16174 1.9406.55793 2.754 1.15592.8135.59799 1.4733 1.38068 1.9251 2.28361 2.852 5.69843-7.1425 15.94363-11.9644 20.07333z" stroke="#fff" stroke-linecap="round" stroke-linejoin="round" stroke-width="2"/></svg>