<svg fill="none" height="33" viewBox="0 0 30 33" width="30" xmlns="http://www.w3.org/2000/svg"><g stroke="#fff" stroke-linecap="round" stroke-linejoin="round" stroke-width="2"><path d="m12.8544 8.55475c2.0121 0 3.6432-1.63113 3.6432-3.64322s-1.6311-3.64322-3.6432-3.64322-3.64322 1.63113-3.64322 3.64322 1.63112 3.64322 3.64322 3.64322z"/><path d="m12.4792 23.7202 2.9631 1.4039c.4366.2069.7731.5788.9355 1.0339.1624.455.1373.9559-.0696 1.3925s-.5788.7731-1.0339.9354c-.455.1624-.9559.1374-1.3925-.0696l-7.40786-3.5108c-.43706-.2074-.77383-.58-.93621-1.0357s-.13708-.9573.07034-1.3943c.20742-.4371.57996-.7739 1.03568-.9362.45572-.1624.95728-.1371 1.39434.0703l1.16219.555v-5.4746c-.93514.6487-2.04985.9884-3.18782.9716-.89113.0725-1.78644-.0752-2.60706-.4301-.82061-.3549-1.54136-.9062-2.09876-1.6053-.26469-.3964-.363434-.8808-.27504-1.3492.08839-.4685.35687-.8836.74784-1.1563.39096-.2727.87325-.3813 1.34338-.3025.47012.0788.89062.3388 1.17126.7241.4921.3739 1.10891.5447 1.72324.4773 1.83133 0 2.34381-2.7932 6.84198-2.7325 4.4994-.0619 5.0106 2.7325 6.842 2.7325.6147.0672 1.2318-.1036 1.7244-.4773.2828-.3796.7022-.6342 1.1695-.7099.4672-.0757.9456.0335 1.3337.3044.3882.2709.6557.6822.7458 1.1469.0902.4646-.0041.9461-.2628 1.3425-.5576.7002-1.279 1.2523-2.1006 1.6074-.8216.3552-1.718.5026-2.61.4292-1.1447.0164-2.2663-.3231-3.2097-.9715v5.0179l.8501-.3109c.4589-.1509.959-.1133 1.3903.1045.4312.2179.7582.5981.9091 1.0571.1509.4589.1133.959-.1045 1.3903-.2179.4312-.5981.7583-1.057.9092"/></g></svg>