<svg fill="none" height="25" viewBox="0 0 24 25" width="24" xmlns="http://www.w3.org/2000/svg" xmlns:xlink="http://www.w3.org/1999/xlink"><clipPath id="a"><path d="m0 .5h24v24h-24z"/></clipPath><g clip-path="url(#a)" stroke="#fff" stroke-linecap="round" stroke-linejoin="round" stroke-width="1.5"><path d="m12 11.75c-.3978 0-.7794-.158-1.0607-.4393s-.4393-.6629-.4393-1.0607v-3c0-.39782.158-.77936.4393-1.06066s.6629-.43934 1.0607-.43934.7794.15804 1.0607.43934.4393.66284.4393 1.06066v3c0 .3978-.158.7794-.4393 1.0607s-.6629.4393-1.0607.4393z"/><path d="m19.5 8.75c0-1.98912-.7902-3.89678-2.1967-5.3033s-3.3142-2.1967-5.3033-2.1967-3.89678.79018-5.3033 2.1967-2.1967 3.31418-2.1967 5.3033v7.5c0 1.9891.79018 3.8968 2.1967 5.3033s3.3142 2.1967 5.3033 2.1967 3.8968-.7902 5.3033-2.1967 2.1967-3.3142 2.1967-5.3033z"/></g></svg>