<svg fill="none" height="29" viewBox="0 0 29 29" width="29" xmlns="http://www.w3.org/2000/svg"><g stroke="#fff" stroke-linecap="round" stroke-linejoin="round" stroke-width="1.5"><path d="m6.25 11.5c-.00001-1.56453.44488-3.09684 1.28276-4.41815.83788-1.3213 2.0342-2.3771 3.44944-3.04424 1.4152-.66714 2.9909-.9181 4.5433-.72361 1.5525.19448 3.0176.82641 4.2245 1.82204"/><path d="m22.188 8.5c.3727.95621.5633 1.9737.562 3v6c0 2.1879-.8691 4.2861-2.416 5.8333-1.547 1.5471-3.6452 2.4164-5.833 2.4167-.5031 0-1.0052-.0455-1.5-.136"/><path d="m9.25196 23.865c-.93925-.7734-1.69543-1.7453-2.21416-2.8459s-.78711-2.3024-.78584-3.5191v-2.25"/><path d="m18.25 17.5v-6c0-.6964-.1939-1.3791-.5601-1.97149-.3661-.59241-.89-1.07116-1.5128-1.38261-.6229-.31145-1.3203-.44329-2.0139-.38075-.6936.06255-1.3561.317-1.9132.73485"/><path d="m10.75 11.5v6c.0005.6226.1559 1.2353.4522 1.7829s.7241 1.0129 1.245 1.3539 1.1185.5471 1.7388.5997c.6204.0526 1.2441-.05 1.815-.2985"/><path d="m14.5 12.25v4.5"/></g></svg>