<svg fill="none" height="29" viewBox="0 0 29 29" width="29" xmlns="http://www.w3.org/2000/svg" xmlns:xlink="http://www.w3.org/1999/xlink"><clipPath id="a"><path d="m0 0h29v29h-29z"/></clipPath><g clip-path="url(#a)" stroke="#fff" stroke-linecap="round" stroke-linejoin="round" stroke-width="2"><path d="m28.0938 14.5c-.0002-.7892-.2579-1.5568-.7339-2.1862-.4761-.6293-1.1446-1.0862-1.9039-1.3011.3748-.3636.637-.8274.7551-1.33609.1182-.50867.0872-1.0406-.0891-1.53214s-.4905-.92188-.905-1.23953c-.4144-.31764-.9117-.50914-1.4321-.55157-.1474-.16557-.3142-.31284-.4967-.43863.3613-.8692.3703-1.84484.0252-2.72056-.3452-.87572-1.0175-1.58284-1.8746-1.97179-.8572-.388954-1.8321-.429234-2.7184-.11232-.8863.31691-1.6146.96616-2.0309 1.81042-.2525-.34344-.5822-.62266-.9626-.81512-.3803-.19245-.8006-.29272-1.2269-.29272-.4262 0-.8465.10027-1.2269.29272-.3803.19246-.7101.47168-.9626.81512-.4162-.84426-1.1445-1.49351-2.0309-1.81042-.88629-.316914-1.86114-.276634-2.71831.11232-.85717.38895-1.52943 1.09607-1.87459 1.97179-.34517.87572-.33616 1.85136.02512 2.72056-.18252.12579-.34925.27306-.49663.43863-.52048.04243-1.0177.23393-1.43219.55157-.41448.31765-.72867.74799-.90497 1.23953s-.20724 1.02347-.08912 1.53214c.11812.50869.38029.97249.75516 1.33609-.75935.215-1.42778.672-1.90378 1.3015s-.733552 1.3971-.733552 2.1864c0 .7892.257552 1.5568.733552 2.1863s1.14443 1.0865 1.90378 1.3015c-.375.3634-.6373.8272-.75549 1.3358-.1182.5087-.08728 1.0406.08906 1.5321.17633.4915.4906.9218.90518 1.2393s.91188.5088 1.43237.5509c.14738.1656.31411.3129.49663.4387-.36128.8692-.37029 1.8448-.02512 2.7205.34516.8757 1.01742 1.5829 1.87459 1.9718.85717.389 1.83202.4292 2.71831.1123.8864-.3169 1.6147-.9661 2.0309-1.8104.2525.3434.5823.6227.9626.8151.3804.1925.8007.2928 1.2269.2928.4263 0 .8466-.1003 1.2269-.2928.3804-.1924.7101-.4717.9626-.8151.4163.8443 1.1446 1.4935 2.0309 1.8104s1.8612.2767 2.7184-.1123c.8571-.3889 1.5294-1.0961 1.8746-1.9718.3451-.8757.3361-1.8513-.0252-2.7205.1825-.1258.3493-.2731.4967-.4387.5204-.0421 1.0178-.2334 1.4323-.5509.4146-.3175.7289-.7478.9052-1.2393s.2073-1.0234.0891-1.5321c-.1182-.5086-.3805-.9724-.7555-1.3358.7595-.215 1.4281-.672 1.9042-1.3016s.7337-1.3975.7336-2.1868z"/><path d="m18.125 9.0625h-7.25c-1.00102 0-1.8125.81148-1.8125 1.8125v7.25c0 1.001.81148 1.8125 1.8125 1.8125h7.25c1.001 0 1.8125-.8115 1.8125-1.8125v-7.25c0-1.00102-.8115-1.8125-1.8125-1.8125z"/><path d="m11.7812 9.0625v-1.8125"/><path d="m17.2188 9.0625v-1.8125"/><path d="m11.7812 21.75v-1.8125"/><path d="m17.2188 21.75v-1.8125"/><path d="m19.9375 11.7812h1.8125"/><path d="m19.9375 17.2188h1.8125"/><path d="m7.25 11.7812h1.8125"/><path d="m7.25 17.2188h1.8125"/><path d="m16.3125 12.6875h-3.625v3.625h3.625z"/></g></svg>