<svg fill="none" height="31" viewBox="0 0 31 31" width="31" xmlns="http://www.w3.org/2000/svg"><g stroke="#fff" stroke-linecap="round" stroke-linejoin="round" stroke-width="2"><path d="m8.61166 1.70264h-5.38698c-.47624 0-.93298.18918-1.26973.52593s-.52593.79349-.52593 1.26973v10.774c0 .4762.18918.9329.52593 1.2697.33675.3367.79349.5259 1.26973.5259h5.38698"/><path d="m19.3857 1.70264h3.5913c.4762 0 .933.18918 1.2697.52593.3368.33675.526.79349.526 1.26973v1.79566h1.7956c.4763 0 .933.18918 1.2697.52593.3368.33675.526.79349.526 1.26973v3.59128c0 .4763-.1892.933-.526 1.2698-.3367.3367-.7934.5259-1.2697.5259h-1.7956v1.7957c0 .4762-.1892.9329-.526 1.2697-.3367.3367-.7935.5259-1.2697.5259h-3.5913"/><path d="m13.9986 14.2722c-.9525 0-1.8659-.3783-2.5394-1.0518s-1.0519-1.587-1.0519-2.5395v-1.79564c0-.47624.1892-.93297.5259-1.26972.3368-.33676.7935-.52594 1.2697-.52594h3.5914c.4762 0 .9329.18918 1.2697.52594.3367.33675.5259.79348.5259 1.26972v1.79564c0 .9525-.3783 1.866-1.0518 2.5395s-1.587 1.0518-2.5395 1.0518z"/><path d="m12.203 7.08961v-3.59132"/><path d="m15.7943 7.08961v-3.59132"/><path d="m13.9987 14.2722v8.9783"/></g></svg>